<?xml version="1.0" standalone="no"?>
<!DOCTYPE svg PUBLIC "-//W3C//DTD SVG 20010904//EN"
 "http://www.w3.org/TR/2001/REC-SVG-20010904/DTD/svg10.dtd">
<svg version="1.0" xmlns="http://www.w3.org/2000/svg"
 width="146.000000pt" height="168.000000pt" viewBox="0 0 146.000000 168.000000"
 preserveAspectRatio="xMidYMid meet">
<metadata>
Created by potrace 1.16, written by Peter Selinger 2001-2019
</metadata>
<g transform="translate(0.000000,168.000000) scale(0.100000,-0.100000)"
fill="#000000" stroke="none">
<path d="M670 1667 c-3 -3 -18 -8 -35 -11 -77 -15 -92 -18 -115 -28 -197 -79
-354 -252 -405 -448 -13 -49 -16 -91 -12 -175 5 -127 31 -216 93 -319 l38 -63
23 70 c13 38 46 117 73 175 47 98 50 110 50 183 0 44 4 79 8 79 5 0 9 6 9 14
0 8 -6 12 -12 9 -17 -6 -28 43 -15 67 13 24 44 34 78 25 26 -6 26 -6 7 9 -20
15 -20 15 2 16 12 0 27 -8 33 -17 9 -16 10 -15 5 5 -8 28 9 29 28 1 8 -11 17
-16 20 -12 3 5 -3 15 -13 23 -10 8 -17 17 -14 21 2 4 -5 10 -16 14 -28 9 -60
53 -60 85 0 15 8 38 19 51 10 13 24 41 31 62 22 70 110 98 176 58 22 -14 35
-16 48 -9 10 6 32 7 49 4 18 -4 60 -6 93 -6 56 1 64 -1 83 -26 11 -15 21 -33
21 -40 0 -7 12 -19 27 -26 14 -7 35 -25 46 -40 20 -27 21 -35 18 -192 -1 -57
-32 -119 -68 -135 -31 -14 -31 -14 -36 7 -3 9 -5 0 -6 -21 -1 -49 76 -238 95
-230 20 7 81 -82 114 -168 16 -43 30 -84 30 -91 1 -26 92 89 126 159 92 190
83 421 -23 603 -84 142 -237 256 -398 296 -16 4 -37 9 -45 12 -24 7 -164 14
-170 9z"/>
<path d="M516 1088 c-9 -12 -16 -37 -16 -56 0 -18 -6 -43 -14 -55 -12 -17 -56
-235 -56 -273 0 -5 12 9 26 31 50 75 144 158 161 141 3 -3 11 0 17 8 6 7 23
16 38 20 24 5 27 3 30 -21 2 -22 5 -16 14 25 l11 52 -54 0 c-72 0 -106 19
-134 76 -21 45 -22 47 -4 60 10 8 14 14 7 14 -6 0 -18 -10 -26 -22z"/>
</g>
</svg>
